PathFileType	4	(X/Y/Z)	C:/Users/beibeiliu/ov580/test_trc/User3\sequence.35_training_dense_left.trc
DataRate	CameraRate	NumFrames	NumMarkers	Units	OrigDataRate	OrigDataStartFrame	OrigNumFrames
120	120	19	19	mm	120	234	267
Frame#	Time	ThumbCMC			ThumbMCP			ThumbIP			ThumbTip			IndexMCP			IndexPIP			IndexTip			MiddleMCP			MiddlePIP			MiddleTip			RingMCP			RingPIP			RingTip			PinkyMCP			PinkyPIP			PinkyTip			BackHand1			BackHand2			BackHand3	
		X0	Y0	Z0	X1	Y1	Z1	X2	Y2	Z2	X3	Y3	Z3	X4	Y4	Z4	X5	Y5	Z5	X6	Y6	Z6	X7	Y7	Z7	X8	Y8	Z8	X9	Y9	Z9	X10	Y10	Z10	X11	Y11	Z11	X12	Y12	Z12	X13	Y13	Z13	X14	Y14	Z14	X15	Y15	Z15	X16	Y16	Z16	X17	Y17	Z17	X18	Y18	Z18	
233	1.94167	-247.97	3.88405	-16.6491	-242.025	0.650647	-49.5253	-238.063	-5.81216	-79.2695	-240.338	-23.8932	-102.797	-288.733	-21.4879	-78.1176	-279.043	-30.2814	-109.234	-249.919	-37.5121	-118.239	-279.895	-44.2869	-77.712	-251.702	-49.2734	-93.7997	-229.222	-38.284	-59.0006	-271.213	-59.0325	-65.4522	-239.643	-63.2205	-70.3541	-232.171	-40.7079	-41.7465	-264.721	-73.5042	-53.5424	-236.46	-66.2308	-56.7826	-232.222	-53.7163	-32.5799	-290.43	-49.4314	-12.6345	-279.224	-40.7141	15.4856	-284.059	-13.4156	-10.5733	
234	1.95	-245.125	5.61857	-20.4069	-234.153	2.96976	-48.3735	-231.773	-3.6837	-79.6853	-230.475	-18.777	-97.8268	-286.815	-18.6296	-80.8327	-279.177	-28.5617	-110.866	-254.374	-35.9927	-124.738	-276.987	-43.1294	-82.7071	-246.105	-49.5221	-94.4521	-224.776	-41.9433	-64.9494	-267.357	-60.9867	-70.6068	-239.595	-62.9024	-72.792	-228.498	-46.5466	-43.2642	-264.9	-71.1215	-53.2461	-236.523	-71.3739	-56.8625	-228.602	-53.3781	-32.6315	-290.004	-42.2454	-16.537	-280.725	-34.0158	12.5797	-280.663	-8.47541	-10.699	
235	1.95833	-238.052	5.80135	-16.4477	-226.637	4.27581	-48.8903	-218.041	0.142305	-76.8804	-217.66	-14.7653	-98.8104	-282.803	-21.5224	-78.6541	-282.771	-28.1368	-106.866	-262.03	-41.5529	-130.815	-272.963	-48.5057	-82.8748	-243.101	-54.2323	-96.9919	-217.869	-50.9005	-69.95	-265.097	-64.4738	-68.7498	-235.634	-68.1323	-72.0332	-221.273	-55.3576	-46.5372	-262.602	-77.2065	-52.2731	-234.247	-74.7092	-54.4298	-225.601	-59.7777	-33.8049	-285.881	-42.0125	-16.3011	-278.453	-35.7133	14.4506	-276.415	-4.47039	-15.7947	
236	1.96667	-232.896	5.7944	-18.9006	-218.961	4.20399	-47.3124	-209.709	0.539829	-76.235	-204.11	-10.0906	-97.5378	-276.733	-26.1472	-81.7059	-279.979	-37.9924	-105.262	-270.434	-54.9773	-130.821	-268.181	-51.706	-78.1766	-239.224	-67.3464	-94.8626	-210.522	-62.8099	-74.6694	-261.627	-68.0653	-64.4037	-229.225	-78.7629	-66.9017	-214.082	-62.7609	-43.2491	-258.937	-83.532	-46.7356	-228.35	-81.1067	-50.5438	-220.279	-61.6971	-30.1657	-282.205	-40.9823	-16.5304	-278.62	-35.8897	12.177	-271.354	-9.92687	-16.1073	
237	1.975	-236.034	-4.41845	-20.7734	-220.096	-1.52115	-49.3483	-209.174	-5.66103	-72.3176	-198.598	-11.3019	-95.2306	-273.068	-39.9188	-79.4913	-275.955	-49.1562	-101.589	-272.796	-67.888	-122.746	-262.131	-63.8647	-78.4589	-235.165	-76.8811	-93.9314	-202.084	-75.9495	-73.1157	-255.201	-80.1695	-59.6128	-225.556	-88.0504	-65.2048	-205.998	-70.4201	-44.3834	-249.622	-88.0232	-44.0874	-224.124	-91.5694	-44.2292	-214.127	-67.9051	-22.3717	-278.272	-53.1316	-14.1426	-276.352	-40.1057	11.1081	-271.082	-18.7552	-14.4178	
238	1.98333	-238.495	-7.43777	-20.6952	-223.644	-7.18054	-45.7239	-211.923	-8.67889	-75.4447	-203.502	-19.1915	-94.7138	-270.036	-53.4676	-75.1726	-272.737	-70.6664	-101.748	-265.442	-84.8783	-122.423	-257.504	-80.0984	-73.6445	-229.287	-93.4193	-86.5902	-195.522	-81.3226	-70.8588	-246.187	-91.83	-57.1521	-218.154	-96.5625	-60.887	-199.953	-76.7967	-39.768	-240.573	-102.024	-37.0928	-213.918	-95.4835	-38.5608	-207.364	-74.9917	-19.0339	-274.141	-62.2436	-11.1824	-274.9	-53.4749	14.3273	-268.708	-27.3831	-12.4342	
239	1.99167	-246.445	-18.5316	-19.5237	-233.329	-22.2667	-47.3395	-223.097	-25.4741	-75.8634	-212.344	-36.0143	-97.8849	-269.575	-75.6948	-69.6987	-268.299	-88.7988	-97.3572	-249.994	-104.588	-116.86	-252.75	-95.7782	-68.6369	-222.807	-102.62	-81.2244	-194.125	-82.2009	-62.1687	-239.985	-105.208	-49.876	-208.206	-100.891	-55.2232	-198.448	-80.5517	-34.7959	-235.343	-109.024	-30.8511	-204.816	-99.8451	-34.69	-202.769	-79.4156	-18.9171	-270.227	-82.603	-7.89392	-271.403	-66.5154	21.8945	-274.401	-45.6899	-11.0672	
240	2	-255.104	-35.2372	-19.1992	-244.159	-34.9722	-45.6752	-234.889	-44.2119	-75.0767	-223.706	-61.3524	-90.0663	-267.898	-95.0898	-65.7338	-255.962	-109.497	-94.2834	-233.384	-107.278	-108.1	-244.429	-111.174	-64.8437	-218.726	-106.474	-76.8672	-200.228	-76.5033	-51.6651	-233.449	-112.604	-48.5957	-204.887	-102.809	-51.8609	-204.04	-77.3041	-27.8279	-222.183	-121.386	-29.4755	-199.955	-104.881	-32.8177	-204.482	-81.1567	-15.6725	-265.936	-99.0455	0.664512	-265.893	-80.6459	23.7825	-278.273	-63.5555	-6.34198	
241	2.00833	-261.271	-51.3185	-10.7199	-252.381	-54.7423	-44.2169	-244.199	-68.6516	-73.6846	-231.503	-80.8873	-85.0153	-263.815	-111.339	-63.0089	-247.033	-117.448	-88.9482	-219.78	-103.105	-95.0014	-241.707	-120.453	-58.7649	-214.111	-105.289	-71.3731	-210.845	-77.7488	-42.4481	-226.525	-123.475	-43.4816	-199.789	-103.168	-45.0449	-213.228	-80.5396	-24.022	-214.388	-127.771	-25.1583	-196.894	-105.482	-30.7275	-205.323	-87.7197	-9.75621	-259.299	-113.931	7.45936	-259.242	-95.7878	32.0851	-275.812	-86.1039	-0.965663	
242	2.01667	-265.436	-64.2752	-10.8812	-255.181	-73.0137	-40.1084	-246.978	-81.7643	-69.0034	-233.17	-95.6665	-86.9203	-255.258	-125.935	-61.516	-233.772	-124.827	-83.9646	-211.941	-102.123	-86.726	-231.17	-130.466	-53.1364	-210.77	-106.168	-64.4184	-215.933	-83.5439	-35.071	-216.19	-132.271	-36.1729	-200.898	-104.517	-43.125	-215.741	-87.2841	-16.7049	-207.619	-132.662	-22.5587	-195.195	-108.926	-30.3321	-206.17	-91.1768	-5.48928	-252.852	-123.131	10.2186	-254.129	-103.845	36.197	-275.361	-99.1443	3.8061	
243	2.025	-262.943	-73.4112	-6.48126	-253.864	-76.8353	-37.7813	-241.652	-88.9565	-63.3614	-227.212	-99.2999	-80.3134	-244.48	-134.259	-54.18	-223.948	-130.598	-77.1144	-205.416	-103.498	-83.5817	-222.683	-134.216	-48.5405	-202.226	-110.74	-57.3328	-214.055	-88.5033	-26.6516	-209.281	-134.366	-29.296	-194.362	-109.132	-39.9752	-212.411	-90.9329	-12.039	-197.972	-133.621	-18.5825	-186.723	-109.65	-24.0532	-202.034	-94.6806	-3.13827	-243.206	-131.26	12.5049	-249.545	-111.568	38.8713	-266.73	-108.884	12.0793	
244	2.03333	-255.935	-76.9689	-3.63094	-248.56	-75.4797	-34.2963	-234.333	-84.8945	-58.4453	-214.506	-97.6076	-76.6251	-235.436	-132.852	-49.083	-214.087	-130.694	-72.4412	-197.946	-103.032	-81.9191	-212.556	-134.138	-44.3522	-192.231	-110.41	-51.0926	-206.384	-86.8094	-22.7379	-200.196	-131.939	-27.7485	-186.061	-102.878	-32.1512	-203.248	-89.3408	-6.49225	-189.088	-132.538	-11.0787	-176.48	-108.833	-18.2022	-193.93	-91.8124	2.72381	-232.142	-131.811	21.6969	-241.343	-115.991	42.9136	-262.804	-107.139	13.2326	
245	2.04167	-251.382	-73.0217	1.0329	-237.86	-73.7978	-34.8108	-222.961	-77.5285	-55.9848	-202.115	-86.1267	-67.6107	-220.373	-128.272	-48.2174	-200.274	-121.287	-70.501	-184.408	-95.3003	-78.9005	-202.784	-127.876	-39.2381	-181.573	-103.247	-47.8041	-195.773	-80.9329	-18.1992	-188.886	-125.657	-25.9898	-174.111	-97.3592	-26.7307	-191.137	-83.6888	-4.1124	-176.652	-126.709	-5.30888	-168.681	-101.513	-15.1236	-185.931	-85.213	6.43829	-222.482	-130.729	20.7492	-233.227	-113.234	45.5821	-253.918	-108.191	14.9241	
246	2.05	-243.181	-66.693	-0.482877	-227.071	-66.1206	-31.6387	-211.053	-67.6803	-50.4124	-188.965	-74.7793	-62.9508	-207.081	-117.727	-49.459	-186.73	-108.002	-71.1873	-169.496	-83.4671	-72.4498	-189.561	-117.363	-40.1028	-171.153	-88.1593	-45.6038	-187.637	-67.9804	-19.3088	-174.701	-117.709	-20.8606	-165.475	-85.7092	-26.5583	-184.281	-75.4194	-0.529004	-167.191	-114.65	-7.66783	-160.772	-87.5407	-11.001	-175.78	-77.6963	8.00021	-214.691	-124.263	18.1576	-225.598	-107.196	47.2009	-242.353	-105.047	12.0754	
247	2.05833	-232.937	-59.7647	2.01937	-217.016	-54.1835	-24.6898	-198.221	-58.0231	-50.6752	-177.8	-61.692	-59.2265	-199.185	-103.78	-51.8666	-176.389	-93.4375	-70.5644	-161	-66.9335	-73.0969	-177.783	-103.711	-40.7906	-161.041	-76.3751	-46.9893	-177.785	-55.8078	-14.9979	-165.034	-104.936	-21.5157	-151.894	-74.8796	-21.1487	-176.001	-64.5785	1.28913	-155.867	-103.817	-4.48975	-150.824	-76.3844	-9.28703	-170.102	-64.1644	9.48201	-201.808	-116.341	19.7277	-216.764	-102.703	44.9196	-233.778	-96.0182	15.872	
248	2.06667	-226.359	-46.5987	1.01364	-209.789	-39.8009	-24.9733	-189.992	-39.6184	-46.9932	-164.546	-46.3849	-56.6905	-187.812	-88.2881	-49.3731	-165.801	-75.606	-71.2384	-148.887	-49.4208	-68.8583	-165.945	-90.2434	-40.0803	-150.89	-58.6595	-48.2539	-165.268	-38.8978	-19.5971	-156.401	-89.6238	-23.6569	-144.391	-59.6538	-25.2148	-164.824	-47.5575	-3.10609	-147.074	-89.7253	-4.66656	-140.775	-62.1283	-6.91056	-162.584	-52.1459	15.1891	-194.099	-102.982	14.7762	-210.267	-93.683	42.0932	-223.655	-83.2391	12.5772	
249	2.075	-218.056	-33.1396	0.351112	-201.514	-22.9978	-25.0772	-178.895	-22.3091	-48.6789	-156.162	-24.4126	-55.9282	-177.594	-69.2539	-55.6672	-158.61	-55.8048	-72.6196	-144.491	-27.7458	-70.0508	-159.533	-71.1095	-43.5827	-140.361	-44.0158	-49.2196	-154.197	-23.7509	-17.4219	-146.762	-71.7146	-26.6375	-134.916	-40.8441	-24.3741	-158.95	-32.628	-0.875756	-138.206	-71.7014	-9.65766	-131.041	-44.8371	-6.10634	-153.15	-36.7924	15.3141	-183.863	-92.0265	13.2368	-200.454	-80.3581	38.4795	-218.827	-69.8778	8.89544	
250	2.08333	-208.838	-19.6735	2.93439	-194.672	-3.46955	-24.6145	-172.938	-1.42184	-46.5583	-152.208	-3.00136	-53.4899	-176.393	-46.2269	-59.9816	-152.141	-33.553	-75.2432	-136.862	-1.03864	-68.2907	-149.994	-49.6665	-50.9892	-136.674	-20.6817	-53.0931	-147.288	-4.32795	-20.9634	-142.176	-50.9359	-32.0042	-126.596	-23.9095	-25.6572	-148.098	-13.4711	-3.64291	-133.056	-53.3544	-13.0518	-126.365	-25.6949	-7.62734	-146.524	-20.7099	12.9908	-180.191	-73.9418	5.94344	-193.116	-67.4123	34.1875	-208.915	-54.8331	6.69962	
251	2.09167	-207.604	-0.76261	4.52345	-191.81	15.2062	-20.2211	-170.168	19.4974	-43.6692	-147.194	15.3197	-53.6006	-169.856	-24.3086	-62.256	-150.062	-6.20886	-77.7805	-138.252	20.2448	-70.4966	-149.189	-26.5844	-54.502	-132.04	-0.196788	-54.8909	-144.552	15.723	-21.4637	-134.41	-28.8973	-37.2913	-124.468	-0.827944	-30.5581	-144.611	4.12045	-2.84048	-128.664	-33.1908	-15.9876	-122.276	-5.44312	-10.5787	-146.875	-4.65996	11.719	-173.082	-57.0553	-0.987547	-186.398	-55.1343	30.6109	-201.67	-42.3385	3.36714	
